<?xml version="1.0" standalone="no"?>
<!DOCTYPE svg PUBLIC "-//W3C//DTD SVG 20010904//EN"
 "http://www.w3.org/TR/2001/REC-SVG-20010904/DTD/svg10.dtd">
<svg version="1.0" xmlns="http://www.w3.org/2000/svg"
 width="1024.000000pt" height="1024.000000pt" viewBox="0 0 1024.000000 1024.000000"
 preserveAspectRatio="xMidYMid meet">

<g transform="translate(0.000000,1024.000000) scale(0.100000,-0.100000)"
fill="#000000" stroke="none">
<path d="M5140 8424 c-65 -37 -164 -138 -215 -219 -61 -99 -86 -180 -93 -302
-8 -161 23 -262 134 -433 96 -149 134 -266 134 -415 0 -133 -32 -232 -121
-371 -22 -36 -16 -64 15 -64 38 0 129 61 201 134 153 155 212 365 163 576 -14
60 -78 198 -134 287 -89 142 -124 252 -124 389 0 118 17 185 77 303 29 58 53
113 53 123 0 26 -36 23 -90 -8z"/>
<path d="M4333 7994 c-45 -22 -136 -121 -166 -180 -45 -88 -60 -159 -54 -248
7 -109 25 -153 107 -271 39 -55 87 -134 108 -175 35 -72 37 -80 37 -175 0 -92
-3 -105 -32 -168 -18 -38 -42 -82 -54 -98 -45 -64 10 -79 94 -26 61 39 149
133 178 188 29 57 49 145 49 215 0 101 -30 179 -118 301 -43 59 -87 125 -100
146 -63 109 -69 258 -14 386 36 82 39 106 16 115 -19 7 -13 9 -51 -10z"/>
<path d="M5815 7999 c-16 -5 -53 -32 -82 -61 -141 -144 -187 -330 -123 -500
11 -31 59 -113 105 -182 93 -139 116 -199 116 -300 0 -86 -14 -135 -67 -234
-25 -46 -42 -87 -39 -92 14 -23 65 -9 122 33 130 96 203 218 211 351 8 137
-23 224 -138 381 -86 118 -113 185 -118 290 -4 91 6 135 59 262 18 44 -1 65
-46 52z"/>
<path d="M4830 6363 c-881 -37 -1495 -191 -1666 -417 -57 -74 -64 -113 -64
-350 0 -243 12 -417 41 -596 100 -629 335 -1088 767 -1501 107 -103 120 -119
131 -164 24 -101 86 -159 231 -221 194 -81 466 -124 795 -124 554 0 960 102
1065 266 15 24 30 62 34 84 5 35 26 59 169 202 90 90 187 195 216 234 l51 71
123 7 c225 12 407 61 614 165 149 74 269 160 372 264 112 113 163 184 226 312
210 426 93 890 -272 1074 -35 17 -91 38 -125 46 -85 20 -299 20 -364 0 -27 -8
-54 -15 -60 -15 -7 0 -13 30 -17 74 -11 155 -81 243 -262 333 -218 109 -586
189 -1061 233 -245 22 -703 34 -944 23z m676 -213 c431 -25 836 -91 1055 -174
201 -75 289 -142 289 -219 0 -39 -56 -114 -122 -163 -354 -263 -1352 -381
-2309 -274 -474 54 -827 165 -983 309 -87 81 -97 139 -36 205 139 151 652 276
1305 319 122 8 639 6 801 -3z m1971 -839 c61 -27 116 -84 146 -150 29 -65 35
-198 13 -289 -61 -247 -339 -498 -632 -570 -111 -28 -178 -35 -171 -19 3 6 24
53 46 104 50 115 112 315 140 453 22 110 51 339 51 402 0 31 5 40 30 53 98 51
281 58 377 16z"/>
<path d="M4645 5844 c-348 -32 -634 -89 -830 -165 -90 -34 -175 -78 -175 -90
0 -29 221 -96 455 -138 285 -51 579 -71 1040 -71 515 0 768 22 1119 97 172 36
336 92 336 114 0 6 -33 26 -73 44 -220 102 -569 179 -946 209 -235 19 -724 19
-926 0z"/>
</g>
</svg>
